<?xml version="1.0" encoding="UTF-8"?>
<svg width="58px" height="65px" viewBox="0 0 58 65" version="1.1" xmlns="http://www.w3.org/2000/svg" xmlns:xlink="http://www.w3.org/1999/xlink">
    <title>510BE132-3F7C-466A-A596-D55553A33F4B</title>
    <g id="Page-1" stroke="none" stroke-width="1" fill="none" fill-rule="evenodd">
        <g id="MDES-1911_LP-63-Desktop_Full-Page" transform="translate(-372.000000, -1642.000000)">
            <g id="Group-18" transform="translate(372.000000, 1643.000000)">
                <polygon id="Fill-1" fill="#FFE600" points="0 63.612 35 63.612 35 13.612 0 13.612"></polygon>
                <polyline id="Stroke-2" stroke="#2E2E2E" stroke-width="1.5" stroke-linecap="round" points="53.3158 11.5067 51.2108 13.6117 49.1048 15.7177 46.9998 13.6117"></polyline>
                <g id="Group-17" transform="translate(6.529100, 0.000000)" stroke="#2E2E2E" stroke-width="1.5">
                    <path d="M50.4709,13.612 C50.4709,17.391 47.4079,20.454 43.6289,20.454 C39.8499,20.454 36.7869,17.391 36.7869,13.612 C36.7869,9.833 39.8499,6.77 43.6289,6.77 C47.4079,6.77 50.4709,9.833 50.4709,13.612 Z" id="Stroke-3"></path>
                    <polyline id="Stroke-5" stroke-linecap="round" stroke-linejoin="round" points="33.4223 15.7688 30.7913 17.8388 28.1593 15.7688 25.5283 17.8388 22.8963 15.7688 20.2643 17.8388 17.6323 15.7688 15.0003 17.8388 12.3683 15.7688 9.7353 17.8388"></polyline>
                    <polyline id="Stroke-7" stroke-linecap="round" stroke-linejoin="round" points="33.4223 9.7688 30.7913 11.8388 28.1593 9.7688 25.5283 11.8388 22.8963 9.7688 20.2643 11.8388 17.6323 9.7688 15.0003 11.8388 12.3683 9.7688 9.7353 11.8388"></polyline>
                    <path d="M26.0435,33.3043 C26.0435,35.4283 24.3215,37.1503 22.1975,37.1503 C20.0735,37.1503 18.3515,35.4283 18.3515,33.3043 C18.3515,31.1803 20.0735,29.4583 22.1975,29.4583 C24.3215,29.4583 26.0435,31.1803 26.0435,33.3043 Z" id="Stroke-9"></path>
                    <path d="M16.4281,42.9197 C16.4281,40.2647 19.0111,38.1117 22.1971,38.1117 C25.3831,38.1117 27.9661,40.2647 27.9661,42.9197" id="Stroke-11" stroke-linecap="round"></path>
                    <path d="M32.7743,39.0735 C32.7743,46.7655 22.1973,50.6115 22.1973,50.6115 C22.1973,50.6115 11.6203,46.7655 11.6203,39.0735 L11.6203,27.5355 C11.6203,27.5355 16.3543,25.6115 22.1973,25.6115 C28.0403,25.6115 32.7743,27.5355 32.7743,27.5355 L32.7743,39.0735 Z" id="Stroke-13"></path>
                    <polyline id="Stroke-15" points="43.158 20.612 43.158 56.842 0 56.842 0 7.10542736e-15 43.158 7.10542736e-15 43.158 6.612"></polyline>
                </g>
            </g>
        </g>
    </g>
</svg>