<?xml version="1.0" encoding="UTF-8"?>
<svg width="68px" height="59px" viewBox="0 0 68 59" version="1.1" xmlns="http://www.w3.org/2000/svg" xmlns:xlink="http://www.w3.org/1999/xlink">
    <title>47AA4968-2CD0-49A1-B6E6-144E199A9D5A</title>
    <g id="Page-1" stroke="none" stroke-width="1" fill="none" fill-rule="evenodd">
        <g id="MDES-1911_LP-63-Desktop_Full-Page" transform="translate(-847.000000, -1642.000000)">
            <g id="Group-20" transform="translate(847.000000, 1643.000000)">
                <polygon id="Fill-1" fill="#FFE600" points="0 28.8456 47 28.8456 47 3.8446 0 3.8446"></polygon>
                <polyline id="Stroke-2" stroke="#2E2E2E" stroke-width="1.5" points="50.9339 15.612 50.9339 0 7.7759 0 7.7759 28.612 7.7759 42.612 7.7759 56.842 50.9339 56.842 50.9339 29.612"></polyline>
                <polyline id="Stroke-4" stroke="#2E2E2E" stroke-width="1.5" points="39.9495 21.612 14.9495 21.612 14.9495 9.612 43.9495 9.612 43.9495 15.612"></polyline>
                <g id="Group-19" transform="translate(17.420800, 15.476100)">
                    <polygon id="Stroke-5" stroke="#2E2E2E" stroke-width="1.5" stroke-linejoin="round" points="19.1772 0 23.1772 5 23.1772 14 49.1772 14 49.1772 0"></polygon>
                    <path d="M29.6769,8.2503 C28.9879,8.2503 28.4269,7.6893 28.4269,7.0003 C28.4269,6.3113 28.9879,5.7503 29.6769,5.7503 C30.3659,5.7503 30.9269,6.3113 30.9269,7.0003 C30.9269,7.6893 30.3659,8.2503 29.6769,8.2503" id="Fill-7" fill="#2E2E2E"></path>
                    <path d="M36.1769,8.2503 C35.4879,8.2503 34.9269,7.6893 34.9269,7.0003 C34.9269,6.3113 35.4879,5.7503 36.1769,5.7503 C36.8659,5.7503 37.4269,6.3113 37.4269,7.0003 C37.4269,7.6893 36.8659,8.2503 36.1769,8.2503" id="Fill-9" fill="#2E2E2E"></path>
                    <path d="M42.6769,8.2503 C41.9879,8.2503 41.4269,7.6893 41.4269,7.0003 C41.4269,6.3113 41.9879,5.7503 42.6769,5.7503 C43.3659,5.7503 43.9269,6.3113 43.9269,7.0003 C43.9269,7.6893 43.3659,8.2503 42.6769,8.2503" id="Fill-11" fill="#2E2E2E"></path>
                    <polyline id="Stroke-13" stroke="#2E2E2E" stroke-width="1.5" stroke-linecap="round" stroke-linejoin="round" points="23.687 24.7426 21.056 26.8126 18.424 24.7426 15.793 26.8126 13.161 24.7426 10.529 26.8126 7.897 24.7426 5.265 26.8126 2.633 24.7426 3.55271368e-15 26.8126"></polyline>
                    <polyline id="Stroke-15" stroke="#2E2E2E" stroke-width="1.5" stroke-linecap="round" stroke-linejoin="round" points="23.687 30.7426 21.056 32.8126 18.424 30.7426 15.793 32.8126 13.161 30.7426 10.529 32.8126 7.897 30.7426 5.265 32.8126 2.633 30.7426 3.55271368e-15 32.8126"></polyline>
                    <polyline id="Stroke-17" stroke="#2E2E2E" stroke-width="1.5" stroke-linecap="round" stroke-linejoin="round" points="23.687 18.7426 21.056 20.8126 18.424 18.7426 15.793 20.8126 13.161 18.7426 10.529 20.8126 7.897 18.7426 5.265 20.8126 2.633 18.7426 3.55271368e-15 20.8126"></polyline>
                </g>
            </g>
        </g>
    </g>
</svg>