<?xml version="1.0" encoding="UTF-8"?>
<svg width="76px" height="70px" viewBox="0 0 76 70" version="1.1" xmlns="http://www.w3.org/2000/svg" xmlns:xlink="http://www.w3.org/1999/xlink">
    <title>A5B7FF66-72A4-41CE-BB7C-511DD7F692BB</title>
    <g id="Page-1" stroke="none" stroke-width="1" fill="none" fill-rule="evenodd">
        <g id="MDES-1911_LP-63-Desktop_Full-Page" transform="translate(-363.000000, -1960.000000)">
            <g id="Group-23" transform="translate(363.000000, 1961.000000)">
                <path d="M46,28.5817 C46,41.2847 35.703,51.5817 23,51.5817 C10.297,51.5817 0,41.2847 0,28.5817 C0,15.8787 10.297,5.5817 23,5.5817 C35.703,5.5817 46,15.8787 46,28.5817" id="Fill-1" fill="#FFE600"></path>
                <path d="M45,5.8899 L71.316,5.8899 C72.972,5.8899 74.316,7.2329 74.316,8.8899 L74.316,32.8899 C74.316,34.5469 72.972,35.8899 71.316,35.8899 L66.316,35.8899 L60.316,41.8899 L60.316,35.8899 L45,35.8899" id="Stroke-3" stroke="#2E2E2E" stroke-width="1.5" stroke-linecap="round" stroke-linejoin="round"></path>
                <polyline id="Stroke-5" stroke="#2E2E2E" stroke-width="1.5" stroke-linecap="round" stroke-linejoin="round" points="68.339 25.2992 65.708 27.3692 63.076 25.2992 60.445 27.3692 57.813 25.2992 55.181 27.3692"></polyline>
                <polyline id="Stroke-7" stroke="#2E2E2E" stroke-width="1.5" stroke-linecap="round" stroke-linejoin="round" points="68.339 19.2992 65.708 21.3692 63.076 19.2992 60.445 21.3692 57.813 19.2992 55.181 21.3692"></polyline>
                <polyline id="Stroke-9" stroke="#2E2E2E" stroke-width="1.5" stroke-linecap="round" stroke-linejoin="round" points="68.339 13.2992 65.708 15.3692 63.076 13.2992 60.445 15.3692 57.813 13.2992 55.181 15.3692"></polyline>
                <path d="M30,35.2428 C29.088,35.2428 28.347,34.5008 28.347,33.5888 C28.347,32.6768 29.088,31.9348 30,31.9348 C30.912,31.9348 31.653,32.6768 31.653,33.5888 C31.653,34.5008 30.912,35.2428 30,35.2428" id="Fill-11" fill="#2E2E2E"></path>
                <path d="M22.6981,14.3909 C22.6981,10.3539 25.9671,7.0809 30.0001,7.0809 C34.0331,7.0809 37.3021,10.3539 37.3021,14.3909 C37.3021,18.4279 34.0331,21.7009 30.0001,21.7009 L30.0001,29.5819" id="Stroke-13" stroke="#2E2E2E" stroke-width="1.5"></path>
                <path d="M50.7646,20.787 C50.7646,32.268 41.4676,41.574 29.9996,41.574 C18.5316,41.574 9.2356,32.268 9.2356,20.787 C9.2356,9.306 18.5316,0 29.9996,0 C41.4676,0 50.7646,9.306 50.7646,20.787 Z" id="Stroke-15" stroke="#2E2E2E" stroke-width="1.5"></path>
                <path d="M36.2044,54.6761 C36.2044,61.7991 41.9794,67.5741 49.1024,67.5741 C56.2254,67.5741 62.0004,61.7991 62.0004,54.6761 C62.0004,47.5531 56.2254,41.7781 49.1024,41.7781 C41.9794,41.7781 36.2044,47.5531 36.2044,54.6761 Z" id="Stroke-17" stroke="#2E2E2E" stroke-width="1.5"></path>
                <path d="M44.588,52.7414 C44.588,55.2344 46.609,57.2554 49.102,57.2554 C51.595,57.2554 53.616,55.2344 53.616,52.7414 C53.616,50.2484 51.595,48.2274 49.102,48.2274 C46.609,48.2274 44.588,50.2484 44.588,52.7414 Z" id="Stroke-19" stroke="#2E2E2E" stroke-width="1.5"></path>
                <path d="M39.8478,63.6483 C41.7918,60.5853 45.2048,58.5453 49.1018,58.5453 C52.9988,58.5453 56.4128,60.5853 58.3568,63.6483" id="Stroke-21" stroke="#2E2E2E" stroke-width="1.5"></path>
            </g>
        </g>
    </g>
</svg>